<svg xmlns="http://www.w3.org/2000/svg" width="193" height="59" viewBox="0 0 193 59">
  <g id="Logo" transform="translate(1 -40)">
    <text id="Interactive" transform="translate(76 67)" font-size="23" font-family="Roboto Slab" font-weight="300"><tspan x="0" y="0">Interactive</tspan></text>
    <text id="Code_Learning" data-name="Code Learning" transform="translate(76 87)" fill="#9f9f9f" font-size="10" font-family="Poppins-Bold, Poppins" font-weight="700" letter-spacing="0.3em"><tspan x="0" y="0">CODE LEARNING</tspan></text>
    <g id="Group_69" data-name="Group 69" transform="translate(-86 -39.571)">
      <circle id="Ellipse_4" data-name="Ellipse 4" cx="29.5" cy="29.5" r="29.5" transform="translate(85 79.571)" fill="#ff3504"/>
      <path id="Path_12" data-name="Path 12" d="M144.5,109.971a1.909,1.909,0,0,1-2.477-1.9c-.155-2.5,2.521-2.521,3.583-2.764s5.241-.575,6.281,2.7-.156,8.155,0,10.084c.243,3.018,1.669,2.488,2.565,3.317a2.74,2.74,0,0,1-.663,4.677A2.415,2.415,0,0,0,151.9,128.9c.1,1.526.671,6.88.3,8.89-.332,1.791-1.1,4.34-4.81,4.08a80.866,80.866,0,0,1-9.055-1.36c-1.725-.3-4.57-.092-4.942-2.289-.332-1.957,1.215-2.167,2.256-2.123,2.322.1,9.619,1.758,10.283.929.834-1.042.962-1.725.531-4.976s-.531-7.894,3.881-8.359c0,0-4.61-.663-3.947-6.037S147.156,109.783,144.5,109.971Z" transform="translate(-19.887 -14.533)" fill="#fff"/>
      <path id="Path_13" data-name="Path 13" d="M137.461,108.309a1.188,1.188,0,0,1,1.269,1.146,2.019,2.019,0,0,1-1.058,2.027,17.336,17.336,0,0,1-3.525.405,1.636,1.636,0,0,1-.8-1.516,1.587,1.587,0,0,1,1.279-1.6C135.011,108.749,137.461,108.309,137.461,108.309Z" transform="translate(-17.934 -9.319)" fill="#fff"/>
      <path id="Path_14" data-name="Path 14" d="M137.515,131.084a1.444,1.444,0,0,1,1.357,1.516c0,1.446-.987,1.727-1.481,1.727s-6.109.176-6.109.176a1.38,1.38,0,0,1-1.083-1.463,1.614,1.614,0,0,1,1.216-1.569Z" transform="translate(-15.873 -24.25)" fill="#fff"/>
      <path id="Path_15" data-name="Path 15" d="M121.256,132.822a1.426,1.426,0,0,1,.934,1.41,1.673,1.673,0,0,1-1.057,1.516h-1.075s-.776-.194-.811-1.463a1.32,1.32,0,0,1,1.216-1.463C120.621,132.84,121.256,132.822,121.256,132.822Z" transform="translate(-11.88 -25.389)" fill="#fff"/>
      <path id="Path_16" data-name="Path 16" d="M126.258,154.122a1.583,1.583,0,0,1,1.2,1.763c-.088,1.516-1.322,1.428-1.322,1.428l-9.184-.617a1.5,1.5,0,0,1-.828-1.516,1.281,1.281,0,0,1,.952-1.322Z" transform="translate(-6.642 -39.18)" fill="#fff"/>
      <path id="Path_17" data-name="Path 17" d="M142.947,137.079s2.03-.6,2.165,1.9-2.2,2.521-3.132,2.764-4.581.575-5.49-2.7.136-8.155,0-10.084c-.213-3.018-1.459-2.488-2.242-3.317a2.929,2.929,0,0,1,.58-4.677,2.425,2.425,0,0,0,1.653-2.819c-.087-1.526-.586-6.88-.261-8.89.29-1.791.964-4.34,4.2-4.08a62.466,62.466,0,0,1,7.916,1.36c1.508.3,4,.092,4.32,2.289.29,1.957-1.062,2.167-1.972,2.123-2.029-.1-8.409-1.758-8.989-.929-.729,1.042-.841,1.725-.464,4.976s.464,7.894-3.393,8.359c0,0,4.03.663,3.451,6.037S140.627,137.267,142.947,137.079Z" transform="translate(-37.86 -14.533)" fill="#fff"/>
    </g>
  </g>
</svg>
