<svg xmlns="http://www.w3.org/2000/svg" width="195" height="68" viewBox="0 0 195 68">
  <g id="Logo" transform="translate(0 0.078)">
    <text id="Interactive" transform="translate(79 27.922)" fill="#fff" font-size="23" font-family="Roboto Slab" font-weight="300"><tspan x="0" y="0">Interactive</tspan></text>
    <text id="Code_Learning" data-name="Code Learning" transform="translate(79 55.922)" fill="#9f9f9f" font-size="10" font-family="Poppins-Bold, Poppins" font-weight="700" letter-spacing="0.3em"><tspan x="0" y="0">CODE LEARNING</tspan></text>
    <g id="Group_69" data-name="Group 69" transform="translate(0 -0.078)">
      <ellipse id="Ellipse_4" data-name="Ellipse 4" cx="33.5" cy="34" rx="33.5" ry="34" transform="translate(0 0)" fill="#ff3504"/>
      <path id="Path_12" data-name="Path 12" d="M145.967,110.933a2.17,2.17,0,0,1-2.8-2.282c-.175-3,2.852-3.025,4.053-3.316s5.929-.69,7.105,3.237-.176,9.784,0,12.1c.275,3.621,1.888,2.985,2.9,3.98a3.38,3.38,0,0,1-.75,5.612,2.9,2.9,0,0,0-2.139,3.383c.112,1.831.759,8.255.338,10.666-.375,2.149-1.247,5.208-5.441,4.9a86.641,86.641,0,0,1-10.245-1.632c-1.951-.358-5.17-.11-5.591-2.746-.375-2.348,1.374-2.6,2.552-2.547,2.627.119,10.882,2.109,11.633,1.114.943-1.25,1.088-2.07.6-5.97s-.6-9.472,4.391-10.029c0,0-5.216-.8-4.466-7.243S148.969,110.707,145.967,110.933Z" transform="translate(-101.15 -92.604)" fill="#fff"/>
      <path id="Path_13" data-name="Path 13" d="M138,108.309a1.344,1.344,0,0,1,1.436,1.3,2.285,2.285,0,0,1-1.2,2.294,19.613,19.613,0,0,1-3.988.459,1.851,1.851,0,0,1-.909-1.715,1.8,1.8,0,0,1,1.447-1.815C135.23,108.807,138,108.309,138,108.309Z" transform="translate(-98.941 -85.433)" fill="#fff"/>
      <path id="Path_14" data-name="Path 14" d="M138.476,131.084a1.634,1.634,0,0,1,1.536,1.715c0,1.635-1.117,1.954-1.675,1.954s-6.911.2-6.911.2A1.561,1.561,0,0,1,130.2,133.3a1.825,1.825,0,0,1,1.376-1.775Z" transform="translate(-97.022 -98.982)" fill="#fff"/>
      <path id="Path_15" data-name="Path 15" d="M121.52,132.822a1.613,1.613,0,0,1,1.057,1.6,1.893,1.893,0,0,1-1.2,1.715h-1.217s-.878-.219-.917-1.655a1.493,1.493,0,0,1,1.376-1.655C120.8,132.842,121.52,132.822,121.52,132.822Z" transform="translate(-93.943 -100.027)" fill="#fff"/>
      <path id="Path_16" data-name="Path 16" d="M127.589,154.157a1.79,1.79,0,0,1,1.356,1.994c-.1,1.715-1.5,1.616-1.5,1.616l-10.39-.7a1.7,1.7,0,0,1-.937-1.715,1.45,1.45,0,0,1,1.077-1.5Z" transform="translate(-88.428 -112.527)" fill="#fff"/>
      <path id="Path_17" data-name="Path 17" d="M144.208,143.457s2.3-.717,2.449,2.282-2.493,3.025-3.543,3.316-5.183.69-6.211-3.237.154-9.784,0-12.1c-.241-3.621-1.651-2.985-2.537-3.98a3.632,3.632,0,0,1,.656-5.612c1.476-.677,1.968-1.552,1.87-3.383s-.663-8.255-.3-10.667c.328-2.149,1.09-5.208,4.757-4.9a67.015,67.015,0,0,1,8.955,1.632c1.706.358,4.52.11,4.888,2.746.328,2.348-1.2,2.6-2.231,2.547-2.3-.119-9.513-2.109-10.169-1.114-.824,1.25-.951,2.07-.525,5.97s.525,9.472-3.838,10.029c0,0,4.56.8,3.9,7.243S141.584,143.683,144.208,143.457Z" transform="translate(-121.484 -92.604)" fill="#fff"/>
    </g>
  </g>
</svg>
